**ABCDEFGHIJKLMNOPQRSTUVWXYZabcdefghijklmnopqrstuvwxyz**************************
**PARASOLID !"#$%&'()*+,-./:;<=>?@[\]^_`{|}~0123456789**************************
**PART1;
MC=AMD64;
MC_MODEL=Intel64 Family 6 Model 183 Stepping 1, GenuineIntel;
MC_ID=unknown;
OS=Windows_NT;
OS_RELEASE=unknown;
FRU=Parasolid Version 33.1, build 247,  8- 6-2021;
APPL=SOLIDWORKS 2022-2022009;
SITE=;
USER=unknown;
FORMAT=text;
GUISE=transmit;
KEY=FILEbaixo.x_t;
DATE=Thu Dec 18 20:35:32 2025;
**PART2;
SCH=SCH_3301247_33103;
USFLD_SIZE=0;
**PART3;
**END_OF_HEADER*****************************************************************
T51 : TRANSMIT FILE created by modeller version 330124723 SCH_3301247_33103_1300
6230 0 12 35 CCCI7 lattice222 0 CCCI4 mesh1006 0 I8 polyline1008 0 CCCCCCCDI5 ow
ner1040 0 CCCCCCI13 boundary_mesh1006 0 I17 boundary_polyline1008 0 CCCA16 index
_map_offset0 0 1 dA9 index_map82 0 A17 node_id_index_map82 0 A20 schema_embeddin
g_map82 0 A5 child12 0 A14 lowest_node_id0 0 1 dA16 mesh_offset_data206 0 Z1 333
5 2 3 0 0 0 0 0 0 0 1e3 1e-8 0 4 0 1 0 1 1 5 6 7 8 0 0 9 10 11 0 0 0 0 0 0 0 81
 255 2 2 3297 12 1 13 0 0 0 0 14 70 11 CI9 list_type0 0 1 uI10 notransmit0 0 1 l
CCCDCCDI12 finger_index0 0 1 dI12 finger_block1012 0 CZ3 0 4 T1 0 0 11 20 1 15 1
5 13 255 5 62 0 1 0 16 0 0 17 0 51 255 6 2829 0 18 19 0 0 +.1348909637567476 0 .
051866910226055 0 1 0 .01 0 0 1 30 255 7 2698 0 10 20 0 0 -.1489792127171742 -.0
88 -.0529942904549482 0 1 0 29 255 8 2661 0 11 21 0 .1489792127171742 -.088 -.05
29942904549481 19 8 CCCCCCCA5 owner12 0 Z9 66 0 1 17 0 22 V0 16 255 10 2696 23 ?
24 0 25 7 0 0 1 18 255 11 2659 0 24 0 26 8 ?1 17 255 24 0 27 28 29 11 30 10 0 31
 +18 26 2656 0 32 11 33 21 ?1 17 32 0 34 31 35 26 36 37 0 28 +18 33 2639 0 38 26
 39 40 ?1 29 21 2658 0 26 40 8 .1413802237462024 -.088 -.0594754255075842 29 40
 2641 0 33 41 21 .1524899527277195 -.088 -.0453857751734191 29 41 2638 0 39 42 4
0 .1524899527277195 -.088 .045385775173419 18 39 2636 0 43 33 44 41 ?1 29 42 260
3 0 44 45 41 .1489792127171742 .012 -.0529942904549482 18 44 2601 0 46 39 47 42
 ?1 29 45 2600 0 47 48 42 .1413802237462024 .012 -.0594754255075842 18 47 2598 0
 49 44 50 45 ?1 29 48 2597 0 50 51 45 .1524899527277195 .012 -.0453857751734191
 18 50 2595 0 52 47 53 48 ?1 29 51 2594 0 53 54 48 .1524899527277195 .012 .04538
5775173419 18 53 2592 0 55 50 56 51 ?1 29 54 2579 0 56 57 51 .1413802237462024 .
012 .0594754255075841 18 56 2577 0 58 53 59 54 ?1 29 57 2576 0 59 60 54 .1489792
127171742 .012 .0529942904549481 18 59 2574 0 61 56 62 57 ?1 29 60 2573 0 62 63
 57 .1413802237462024 -.088 .0594754255075841 18 62 2571 0 64 59 65 60 ?1 29 63
 2570 0 65 66 60 .1489792127171742 -.088 .0529942904549481 18 65 2568 0 67 62 68
 63 ?1 29 66 2555 0 68 69 63 .1306647811393408 -.088 -.0609299880964216 18 68 25
53 0 70 65 71 66 ?1 29 69 2552 0 71 72 66 .1306647811393408 .012 -.0609299880964
216 18 71 2550 0 73 68 74 69 ?1 29 72 2543 0 74 75 69 .1151628612113412 -.018461
94633577425 -.0537013241178898 18 74 2541 0 76 71 77 72 ?1 29 75 2528 0 77 78 72
 .1306647811393406 .012 .0609299880964215 18 77 2526 0 79 74 80 75 ?1 29 78 2525
 0 80 81 75 .1306647811393406 -.088 .0609299880964215 18 80 2523 0 82 77 83 78 ?
1 29 81 2522 0 83 84 78 .1151628612113412 -.01846194633577425 .0537013241178898
 18 83 2520 0 85 80 86 81 ?1 29 84 2513 0 86 87 81 .1065636795019036 -.007975046
77755687 .0496914598329127 18 86 2511 0 88 83 89 84 ?1 29 87 2510 0 89 90 84 .10
65636795019036 -.00797504677755687 -.0496914598329127 18 89 2508 0 91 86 92 87 ?
1 29 90 1248 0 92 93 87 .1474899527277194 .012 -.0177 18 92 1246 0 94 89 95 90 ?
1 29 93 910 0 95 96 90 .1261212214498416 -.035 -.043 18 95 908 0 97 92 98 93 ?1
 29 96 871 0 98 99 93 .135 -.073 .041 18 98 869 0 100 95 101 96 ?1 29 99 546 0 1
01 102 96 .1524899527277195 -.0675 .036 18 101 544 0 103 98 104 99 ?1 29 102 526
 0 104 105 99 .1475 -.0675 -.036 18 104 524 0 106 101 107 102 ?1 29 105 57 0 107
 108 102 .1074688565239498 .012 -.0501135508102787 18 107 55 0 109 104 110 105 ?
1 29 108 48 0 110 111 105 .1183637969869864 -.088 -.0551939449833355 18 110 46 0
 112 107 113 108 ?1 29 111 45 0 113 114 108 .1223968666392996 .00100000000000004
4 -.0570745962480816 18 113 43 0 115 110 116 111 ?1 29 114 42 0 116 117 111 .120
5819867100972 .00100000000000004 -.0562283038384627 18 116 40 0 118 113 119 114
 ?1 29 117 39 0 119 120 114 .1196887463215714 -.0187116344204937 -.0558117790047
199 18 119 37 0 121 116 122 117 ?1 29 120 108 0 122 123 117 .1074688565239498 .0
12 .0501135508102787 18 122 90 0 124 119 125 120 ?1 29 123 111 0 125 126 120 .11
83637969869864 -.088 .0551939449833355 18 125 87 0 127 122 128 123 ?1 29 126 112
 0 128 129 123 .1223968666392996 .001000000000000044 .0570745962480816 18 128 86
 0 130 125 131 126 ?1 29 129 113 0 131 132 126 .1205819867100972 .00100000000000
004 .0562283038384627 18 131 85 0 133 128 134 129 ?1 29 132 114 0 134 135 129 .1
196887463215714 -.0187116344204937 .0558117790047199 18 134 84 0 136 131 137 132
 ?1 29 135 471 0 137 138 132 .1475 -.073 -.041 18 137 404 0 139 134 140 135 ?1 2
9 138 472 0 140 141 135 .1475 -.073 .041 18 140 403 0 142 137 143 138 ?1 29 141
 473 0 143 144 138 .1475 -.037 .041 18 143 402 0 145 140 146 141 ?1 29 144 474 0
 146 147 141 .1475 -.037 -.041 18 146 400 0 148 143 149 144 ?1 29 147 697 0 149
 150 144 .1475 -.0425 -.036 18 149 613 0 151 146 152 147 ?1 29 150 698 0 152 153
 147 .1524899527277195 -.0425 -.036 18 152 603 0 154 149 155 150 ?1 29 153 699 0
 155 156 150 .1475 -.0425 .036 18 155 614 0 157 152 158 153 ?1 29 156 700 0 158
 159 153 .1524899527277195 -.0425 .036 18 158 606 0 160 155 161 156 ?1 29 159 70
1 0 161 162 156 .1475 -.0675 .036 18 161 615 0 163 158 164 159 ?1 29 162 704 0 1
64 165 159 .1524899527277195 -.0675 -.036 18 164 612 0 166 161 167 162 ?1 29 165
 1135 0 167 168 162 .1261212214498416 -.035 .043 18 167 1013 0 169 164 170 165 ?
1 29 168 1136 0 170 171 165 .124006300243173 -.075 .043 18 170 1014 0 172 167 17
3 168 ?1 29 171 1137 0 173 174 168 .124006300243173 -.075 -.043 18 173 1016 0 17
5 170 176 171 ?1 29 174 1143 0 176 177 171 .135 -.037 -.041 18 176 1021 0 178 17
3 179 174 ?1 29 177 1149 0 179 180 174 .135 -.035 -.043 18 179 1012 0 181 176 18
2 177 ?1 29 180 1150 0 182 183 177 .135 -.075 -.043 18 182 1011 0 184 179 185 18
0 ?1 29 183 1151 0 185 186 180 .135 -.075 .043 18 185 1010 0 187 182 188 183 ?1
 29 186 1152 0 188 189 183 .135 -.035 .043 18 188 1015 0 190 185 191 186 ?1 29 1
89 1156 0 191 192 186 .135 -.037 .041 18 191 1022 0 193 188 194 189 ?1 29 192 11
57 0 194 195 189 .135 -.073 -.041 18 194 1019 0 196 191 197 192 ?1 29 195 1348 0
 198 199 192 .1474899527277194 .012 .0177 18 198 1301 0 200 201 202 195 ?1 29 19
9 1349 0 202 203 195 .1380899527277194 .012 .0177 18 202 1303 0 204 198 205 199
 ?1 29 203 1350 0 205 206 199 .1380899527277194 .012 -.0177 18 205 1305 0 207 20
2 0 203 ?1 29 206 1352 0 197 208 203 .1474899527277194 -.018 .0177 18 197 1298 0
 209 194 210 206 ?1 29 208 1353 0 210 211 206 .1380899527277194 -.018 .0177 18 2
10 1300 0 212 197 213 208 ?1 29 211 1354 0 213 214 208 .1380899527277194 -.018 -
.0177 18 213 1302 0 215 210 201 211 ?1 29 214 1355 0 201 0 211 .1474899527277194
 -.018 -.0177 18 201 1304 0 216 213 198 214 ?1 17 216 0 217 218 94 201 219 220 0
 221 -15 255 217 1309 0 94 222 0 17 218 0 217 200 216 197 223 224 0 225 -17 94 0
 217 216 200 92 226 227 0 219 +17 219 0 228 229 221 92 216 220 0 230 +16 220 127
3 231 ?219 232 233 234 0 0 1 17 221 0 228 219 215 201 235 236 0 223 -15 228 1321
 0 229 237 0 17 215 0 228 221 229 213 207 232 0 238 -17 235 0 239 240 223 213 22
1 236 0 0 +16 236 1282 241 ?235 242 224 243 0 0 1 17 223 0 239 235 225 201 218 2
24 0 0 +15 239 1324 0 223 244 0 17 225 0 239 223 240 197 245 233 0 0 +16 224 127
0 246 ?223 236 247 248 0 0 1 81 2 246 3166 249 224 0 0 250 251 0 0 16 247 1295 2
52 ?253 224 254 255 0 0 1 30 248 1347 0 224 256 243 0 +.1474899527277194 -.018 .
0177 0 0 -1 31 255 256 1425 0 257 258 248 0 -.1474899527277194 .0044652094057623
15 0 1 0 0 0 0 -1 .003 30 243 1346 0 236 248 259 0 +.1380899527277194 -.018 -.01
77 -1 0 0 30 259 1345 0 242 243 260 0 +.1380899527277194 -.018 .0177 0 0 1 16 24
2 1278 261 ?240 233 236 259 0 0 1 30 260 1344 0 233 259 262 0 +.1380899527277194
 -.018 .0177 1 0 0 16 233 1274 263 ?225 220 242 260 0 0 1 30 262 1343 0 227 260
 264 0 +.1474899527277194 .012 .0177 0 0 -1 16 227 1286 265 ?94 266 257 262 0 0
 1 30 264 1342 0 266 262 267 0 +.1380899527277194 .012 -.0177 -1 0 0 16 266 1289
 268 ?229 254 227 264 0 0 1 30 267 1341 0 254 264 255 0 +.1380899527277194 .012
 .0177 0 0 1 16 254 1292 269 ?270 247 266 267 0 0 1 30 255 1340 0 247 267 271 0
 +.1380899527277194 .012 .0177 1 0 0 30 271 1339 0 272 255 273 0 +.1474899527277
194 -.018 .0177 0 1 0 16 272 1277 274 ?200 275 276 271 0 0 1 30 273 1338 0 276 2
71 277 0 +.1380899527277194 -.018 .0177 0 1 0 16 276 1281 278 ?204 272 232 273 0
 0 1 30 277 1337 0 232 273 234 0 +.1380899527277194 -.018 -.0177 0 1 0 16 232 12
85 279 ?207 276 220 277 0 0 1 30 234 1336 0 220 277 280 0 +.1474899527277194 -.0
18 -.0177 0 1 0 30 280 1134 0 275 234 281 0 +.135 -.073 .041 0 -1 0 16 275 983 2
82 ?100 283 272 280 0 0 1 30 281 1133 0 283 280 284 0 +.135 -.073 -.041 0 0 -1 1
6 283 987 285 ?196 286 275 281 0 0 1 30 284 1132 0 286 281 287 0 +.135 -.037 -.0
41 0 1 0 16 286 991 288 ?178 289 283 284 0 0 1 30 287 1131 0 289 284 290 0 +.135
 -.037 .041 0 0 1 16 289 995 291 ?193 292 286 287 0 0 1 30 290 1122 0 292 287 29
3 0 +.135 -.035 .043 0 0 1 16 292 951 294 ?295 296 289 290 0 0 1 30 293 1121 0 2
96 290 297 0 +.135 -.075 .043 0 -1 0 16 296 954 298 ?187 299 292 293 0 0 1 30 29
7 1120 0 299 293 300 0 +.135 -.075 -.043 0 0 -1 16 299 957 301 ?184 302 296 297
 0 0 1 30 300 1119 0 302 297 303 0 +.135 -.035 -.043 0 1 0 16 302 960 304 ?181 3
05 299 300 0 0 1 30 303 1114 0 305 300 306 0 +.135 -.035 -.043 -1 0 0 16 305 975
 307 ?97 308 302 303 0 0 1 30 306 1113 0 308 303 309 0 +.135 -.075 -.043 -1 0 0
 16 308 981 310 ?311 312 305 306 0 0 1 30 309 1112 0 312 306 313 0 +.135 -.075 .
043 -1 0 0 16 312 979 251 ?314 315 308 309 0 0 1 30 313 1111 0 315 309 316 0 +.1
35 -.035 .043 -1 0 0 16 315 977 317 ?318 319 312 313 0 0 1 31 316 856 0 319 313
 320 0 +.1386499527277194 .012 .03 0 1 0 0 0 1 .0035 16 319 833 321 ?322 323 315
 316 0 0 1 31 320 855 0 323 316 324 0 -.1386499527277194 -.037 .03 0 -1 0 0 0 -1
 .0035 16 323 836 325 ?326 327 319 320 0 0 1 30 324 688 0 327 320 328 0 +.172 -.
0675 -.036 -1 0 0 16 327 580 329 ?106 330 323 324 0 0 1 30 328 687 0 330 324 331
 0 +.172 -.0675 .036 -1 0 0 16 330 589 332 ?333 334 327 328 0 0 1 30 331 686 0 3
34 328 335 0 +.172 -.0425 .036 -1 0 0 16 334 586 336 ?337 338 330 331 0 0 1 30 3
35 685 0 338 331 339 0 +.172 -.0425 -.036 -1 0 0 16 338 583 340 ?341 342 334 335
 0 0 1 30 339 684 0 342 335 343 0 +.1524899527277195 -.0675 0 0 0 1 16 342 588 3
44 ?345 346 338 339 0 0 1 30 343 683 0 346 339 347 0 +.1524899527277195 -.216294
236883578 .036 0 1 0 16 346 585 348 ?349 350 342 343 0 0 1 30 347 682 0 350 343
 351 0 +.1524899527277195 -.0425 -1674916348396765e-32 0 -96373526443156e-30 -1
 16 350 582 352 ?353 354 346 347 0 0 1 30 351 681 0 354 347 355 0 +.152489952727
7195 -.216294236883578 -.036 0 -1 0 16 354 579 356 ?357 358 350 351 0 0 1 30 355
 462 0 358 351 359 0 +.1475 -.073 -.041 0 1 0 16 358 381 360 ?361 362 354 355 0
 0 1 30 359 461 0 362 355 363 0 +.1475 -.037 .041 0 0 1 16 362 384 364 ?145 365
 358 359 0 0 1 30 363 460 0 365 359 366 0 +.1475 -.073 .041 0 -1 0 16 365 387 36
7 ?142 368 362 363 0 0 1 30 366 459 0 368 363 369 0 +.1475 -.073 .041 0 0 -1 16
 368 390 370 ?139 371 365 366 0 0 1 30 369 454 0 371 366 372 0 +.1475 -.073 -.04
1 -1 0 0 16 371 373 373 ?374 375 368 369 0 0 1 30 372 453 0 375 369 376 0 +.1475
 -.073 .041 -1 0 0 16 375 379 377 ?378 379 371 372 0 0 1 30 376 452 0 379 372 38
0 0 +.1475 -.037 .041 -1 0 0 16 379 377 381 ?382 383 375 376 0 0 1 30 380 451 0
 383 376 384 0 +.1475 -.037 -.041 -1 0 0 16 383 375 385 ?386 387 379 380 0 0 1 3
0 384 300 0 388 380 389 0 +.0889010911380548 .012 .1042345832294708 -.7608515281
52907 0 .648925998945478 16 388 2575 390 ?391 392 387 384 0 0 1 30 389 298 0 392
 384 393 0 +.0889010911380548 .012 -.1042345832294708 .760851528152907 0 .648925
998945478 16 392 2599 394 ?29 395 388 389 0 0 1 30 393 297 0 395 389 396 0 +.152
4899527277195 .012 0 0 0 -1 16 395 2593 397 ?398 399 392 393 0 0 1 30 396 295 0
 399 393 400 0 +.0889010911380548 -.088 .1042345832294708 -.760851528152907 0 .6
48925998945478 16 399 2569 401 ?402 403 395 396 0 0 1 30 400 294 0 387 396 404 0
 +.1524899527277195 -.088 0 0 0 -1 16 387 2637 405 ?406 388 383 400 0 0 1 30 404
 293 0 403 400 407 0 +.0889010911380548 -.088 -.1042345832294708 .76085152815290
7 0 .648925998945478 16 403 2657 408 ?31 409 399 404 0 0 1 30 407 106 0 409 404
 410 0 +.1196887463215714 -.0187116344204937 .0558117790047199 .905177022046057
 -.0499376169438926 .4220909773660135 16 409 2521 411 ?136 412 403 407 0 0 1 30
 410 105 0 412 407 413 0 +.1205819867100972 .00100000000000004 .0562283038384627
 .0452588511023033 .998752338877845 .0211045488683009 16 412 70 414 ?415 416 409
 410 0 0 1 30 413 104 0 416 410 417 0 +.1223968666392996 .001000000000000044 .05
70745962480816 .90630778703665 184084407449675e-29 .4226182617407005 16 416 72 4
18 ?419 420 412 413 0 0 1 30 417 103 0 420 413 421 0 +.1183637969869864 -.088 .0
551939449833355 -.0452588511023032 -.998752338877845 -.02110454886830085 16 420
 74 422 ?423 424 416 417 0 0 1 30 421 102 0 424 417 425 0 +.1364899527277194 -.0
88 .0636463102181495 .90630778703665 -2081668171172165e-30 .4226182617407005 16
 424 76 426 ?427 428 420 421 0 0 1 30 425 100 0 428 421 429 0 +.1074688565239498
 .012 .0501135508102787 -.90630778703665 541741560550992e-30 -.4226182617407005
 16 428 2527 430 ?124 431 424 425 0 0 1 30 429 99 0 431 425 432 0 +.106111090990
8806 -.0179625701663353 .0494804143442297 -.0452588511023032 -.998752338877845 -
.02110454886830085 16 431 82 433 ?434 435 428 429 0 0 1 30 432 7 0 435 429 436 0
 +.1196887463215714 -.0187116344204937 -.0558117790047199 .905177022046057 -.049
9376169438926 -.4220909773660135 16 435 2542 437 ?121 438 431 432 0 0 1 30 436 1
1 0 438 432 439 0 +.1205819867100972 .00100000000000004 -.0562283038384627 .0452
588511023033 .998752338877845 -.0211045488683009 16 438 9 440 ?441 442 435 436 0
 0 1 30 439 15 0 442 436 443 0 +.1223968666392996 .001000000000000044 -.05707459
62480816 .90630778703665 184084407449675e-29 -.4226182617407005 16 442 13 444 ?4
45 446 438 439 0 0 1 30 443 19 0 446 439 447 0 +.1183637969869864 -.088 -.055193
9449833355 -.0452588511023032 -.998752338877845 .02110454886830085 16 446 17 250
 ?448 449 442 443 0 0 1 30 447 23 0 449 443 450 0 +.1364899527277194 -.088 -.063
6463102181495 .90630778703665 -2081668171172165e-30 -.4226182617407005 16 449 21
 451 ?35 452 446 447 0 0 1 30 450 31 0 452 447 453 0 +.1074688565239498 .012 -.0
501135508102787 -.90630778703665 541741560550992e-30 .4226182617407005 16 452 25
51 454 ?109 455 449 450 0 0 1 30 453 35 0 455 450 456 0 +.1061110909908806 -.017
9625701663353 -.0494804143442297 -.0452588511023032 -.998752338877845 .021104548
86830085 16 455 33 457 ?458 459 452 453 0 0 1 31 456 145 0 459 453 460 0 +0 -.01
87116344204937 0 0 -1 0 0 0 -1 .1320619198395252 16 459 115 461 ?462 463 455 456
 0 0 1 31 460 146 0 463 456 464 0 +0 .00100000000000003 0 0 -1 0 0 0 -1 .1330475
0156055 16 463 116 465 ?133 466 459 460 0 0 1 31 464 147 0 466 460 467 0 +0 .001
000000000000056 0 0 -1 0 0 0 -1 .13505 16 466 119 468 ?130 469 463 464 0 0 1 31
 467 148 0 469 464 470 0 +0 -.088 0 0 -1 0 0 0 -1 .1306 16 469 122 471 ?127 472
 466 467 0 0 1 31 470 151 0 472 467 473 0 +0 .012 0 0 -1 0 0 0 -1 .1185787632646
742 16 472 131 474 ?475 476 469 470 0 0 1 30 473 527 0 476 470 477 0 +.1475 -.06
75 0 0 0 -1 16 476 525 478 ?479 480 472 473 0 0 1 30 477 531 0 480 473 481 0 +.1
475 0 .036 0 -1 0 16 480 529 482 ?483 484 476 477 0 0 1 30 481 535 0 484 477 485
 0 +.1475 -.0425 409587487383413e-32 0 96373526443156e-30 1 16 484 533 486 ?487
 488 480 481 0 0 1 30 485 538 0 488 481 489 0 +.1475 0 -.036 0 1 0 16 488 536 49
0 ?491 492 484 485 0 0 1 38 12 CCCCCCCCCCCA17 intersection_data204 0 Z489 911 0
 492 485 493 0 +494 495 496 497 498 499 16 492 909 500 ?501 502 488 489 0 0 1 31
 493 915 0 502 489 503 0 +0 -.075 0 0 1 0 0 0 1 .13125 52 255 494 140 0 16 504 5
05 506 -0 .001000000000000056 0 0 1 0 .13505 .0499376169438926 .998752338877845
 0 0 1 50 255 495 1100 0 507 508 509 510 +.135 -.035 -.043 0 0 1 1 0 0 40 255 2
 496 0 1 2 194588871903066e-19 .000298873579868198 ??.121711361382288 -.11832182
5669984 -.043 .1284076235217402 .00832182566998384 -.043 41 3 CI8 term_use0 0 1
 cCZ1 497 L?.121711361382288 -.118321825669984 -.043 41 1 498 L?.128407623521740
2 .00832182566998384 -.043 204 2 17 INTERSECTION_DATA17 Intersection data7 uv_ty
pe0 0 1 u6 values0 1 1 fT8 499 4 1.91040342444193 -.119321825669984 -.0132886386
1771202 -.0833218256699838 1.8939302171624 .00732182566998379 -.0065923764782597
2 .04332182566998385 14 255 507 1075 511 ?222 512 513 5 495 +0 0 222 512 22 50 5
08 1102 0 514 515 495 0 +.135 0 0 -1 0 0 0 0 1 50 509 1099 0 512 495 516 0 +.135
 -.075 -.043 0 1 0 0 0 1 141 255 510 489 510 510 495 14 512 1071 517 ?507 518 51
9 5 509 +0 0 507 518 22 50 516 1098 0 518 509 520 521 +.135 -.075 .043 0 0 -1 -1
 0 0 14 518 1067 522 ?512 523 524 5 516 +0 0 512 523 22 50 520 1097 0 523 516 52
5 0 +.135 -.035 .043 0 -1 0 0 0 -1 141 521 503 521 521 516 38 503 919 0 526 493
 527 0 +494 516 528 529 530 531 16 526 917 532 ?533 534 502 503 0 0 1 31 527 922
 0 534 503 535 0 +0 -.035 0 0 -1 0 0 0 -1 .13325 40 2 528 0 1 2 194588871903335e
-19 .000298873579868198 ??.1284076235217402 .00832182566998383 .043 .12171136138
2288 -.118321825669984 .043 41 1 529 L?.1284076235217402 .00832182566998383 .043
 41 1 530 L?.121711361382288 -.118321825669984 .043 204 8 531 4 1.24766243642739
2 .00732182566998377 .00659237647825972 .0833218256699838 1.231189229147864 -.11
9321825669984 .013288638617712 -.04332182566998385 16 534 920 536 ?537 538 526 5
27 0 0 1 31 535 2516 0 538 527 539 0 +0 -.007975046777557 0 0 -1 0 0 0 -1 .11758
00109257964 16 538 2514 540 ?541 542 534 535 0 0 1 30 539 2531 0 542 535 543 0 +
.1306647811393406 0 .0609299880964215 0 1 0 16 542 2529 544 ?545 546 538 539 0 0
 1 31 543 2537 0 546 539 547 0 -.1156154497223642 -.00847442294699579 .053912369
6065728 .4226182617407005 0 -.90630778703665 -.90630778703665 0 -.42261826174070
05 .01 16 546 2535 548 ?85 549 542 543 0 0 1 31 547 2546 0 549 543 550 0 +0 -.01
846194633577425 0 0 1 0 0 0 1 .127068158145136 16 549 2544 551 ?76 552 546 547 0
 0 1 30 550 2558 0 552 547 553 0 -.1306647811393408 -.088 -.0609299880964216 0 1
 0 16 552 2556 554 ?70 555 549 550 0 0 1 31 553 2564 0 555 550 556 0 +.115615449
7223642 -.00847442294699579 -.0539123696065728 -.4226182617407005 0 -.9063077870
3665 -.90630778703665 0 .4226182617407005 .01 16 555 2562 557 ?91 558 552 553 0
 0 1 30 556 2582 0 558 553 559 0 -.1413802237462024 -.216294236883578 .059475425
5075841 0 1 0 16 558 2580 560 ?64 561 555 556 0 0 1 30 559 2588 0 561 556 562 0
 +.1489792127171742 .012 .0529942904549481 0 1 0 16 561 2586 563 ?564 565 558 55
9 0 0 1 31 562 2606 0 565 559 566 0 +.1348909637567476 .012 .051866910226055 0 1
 0 0 0 1 .01 16 565 2604 567 ?58 568 561 562 0 0 1 31 566 2614 0 568 562 569 0 +
.1348909637567478 .012 -.0518669102260551 0 1 0 0 0 1 .01 16 568 2612 570 ?73 57
1 565 566 0 0 1 31 569 2622 0 571 566 572 0 +.1424899527277194 .012 -.0453857751
734191 0 1 0 0 0 1 .01 16 571 2620 573 ?46 574 568 569 0 0 1 31 572 2630 0 574 5
69 575 0 +.1424899527277194 .012 .045385775173419 0 1 0 0 0 1 .01 16 574 2628 57
6 ?55 577 571 572 0 0 1 30 575 2644 0 577 572 578 0 +.1524899527277195 .012 -.04
53857751734191 0 1 0 16 577 2642 579 ?580 581 574 575 0 0 1 30 578 2651 0 581 57
5 582 0 -.1524899527277195 -.088 .045385775173419 0 1 0 16 581 2649 583 ?43 584
 577 578 0 0 1 31 582 2664 0 584 578 585 0 +.1348909637567476 -.088 .05186691022
6055 0 -1 0 0 0 -1 .01 16 584 2662 586 ?82 37 581 582 0 0 1 31 585 2671 0 37 582
 587 0 +.1348909637567478 -.088 -.0518669102260551 0 -1 0 0 0 -1 .01 16 37 2669
 588 ?32 589 584 585 0 0 1 31 587 2678 0 589 585 590 0 +.1424899527277194 -.088
 -.0453857751734191 0 -1 0 0 0 -1 .01 16 589 2676 591 ?38 592 37 587 0 0 1 31 59
0 2685 0 592 587 20 0 +.1424899527277194 -.088 .045385775173419 0 -1 0 0 0 -1 .0
1 16 592 2683 593 ?67 25 589 590 0 0 1 30 20 2692 0 25 590 7 0 +.141380223746202
4 .012 -.0594754255075841 0 1 0 16 25 2690 594 ?595 10 592 20 0 0 1 81 2 594 315
4 249 25 0 0 282 440 0 0 17 595 0 27 29 28 47 596 25 0 597 +15 27 271 0 29 598 0
 17 29 0 27 24 595 44 597 392 0 30 +17 28 0 27 595 24 26 31 403 0 596 -17 596 0
 599 36 49 26 595 25 0 0 -17 597 0 600 73 46 47 29 392 0 0 -15 600 129 0 601 602
 0 17 73 0 600 109 597 71 49 568 0 603 +17 46 0 600 597 398 44 52 571 0 29 +17 3
98 0 600 46 55 50 604 395 0 0 +17 52 0 605 606 30 50 46 571 0 580 -15 605 2776 0
 607 608 0 17 606 0 605 607 52 33 580 577 0 0 -17 30 0 605 52 607 44 24 10 0 0 -
17 580 0 609 604 406 50 606 577 0 398 +15 609 259 0 604 610 611 17 604 0 609 43
 580 53 398 395 0 612 -17 406 0 609 580 43 33 613 387 0 606 +17 43 0 609 406 604
 39 612 581 0 613 +17 613 0 34 67 38 39 406 387 0 614 -15 34 123 0 613 615 0 17
 67 0 34 402 613 65 614 592 0 616 +17 38 0 34 613 31 33 607 589 0 406 +17 614 0
 617 612 618 39 67 592 0 0 -15 617 2755 0 614 619 0 17 612 0 617 61 614 53 43 58
1 0 0 -17 618 0 617 614 61 65 564 561 0 0 -17 61 0 617 618 612 59 55 574 0 564 -
17 564 0 620 391 616 59 618 561 0 601 +15 620 263 0 616 621 0 17 391 0 620 64 56
4 56 601 388 0 622 +17 616 0 620 564 64 65 402 399 0 618 -17 601 0 600 55 58 59
 391 388 0 0 -17 55 0 600 398 601 53 61 574 0 604 +17 58 0 600 601 623 56 79 565
 0 391 +17 623 0 600 58 475 77 124 428 0 0 -17 79 0 624 625 622 77 58 565 0 545
 -15 624 2818 0 626 18 0 17 625 0 624 626 79 80 545 542 0 0 -17 622 0 624 79 626
 56 64 558 0 0 -17 545 0 627 124 427 77 625 542 0 623 +15 627 95 0 434 628 0 17
 124 0 627 434 545 122 623 428 0 475 +17 427 0 627 545 423 80 629 424 0 625 +17
 423 0 627 427 419 125 630 420 0 629 +17 629 0 34 112 82 125 427 424 0 0 -17 112
 0 34 35 629 110 127 469 0 448 -17 82 0 34 629 402 80 626 584 0 427 +17 402 0 34
 82 67 62 616 399 0 626 +17 626 0 624 622 625 62 82 584 0 0 -17 35 0 34 32 112 6
8 631 449 0 36 +17 127 0 632 630 448 125 112 469 0 423 +17 448 0 632 127 115 110
 633 446 0 631 +15 632 120 0 115 16 634 17 115 0 632 448 630 113 130 466 0 445 -
17 633 0 635 636 631 113 448 446 0 0 -17 631 0 635 633 70 110 35 449 0 0 -15 635
 4 0 637 638 0 17 70 0 635 631 603 68 639 552 0 35 +17 603 0 635 70 640 71 109 4
52 0 639 -17 639 0 599 49 36 71 70 552 0 0 -15 599 2797 0 36 641 0 17 49 0 599 5
96 639 47 73 568 0 595 -17 36 0 599 639 596 68 32 37 0 0 -14 641 2796 642 ?18 60
8 599 5 19 +0 0 18 608 22 81 1 642 3301 643 641 644 0 522 645 646 14 18 2817 645
 ?0 641 624 5 6 +0 0 0 641 22 14 608 2775 647 ?641 619 605 5 648 +0 0 641 619 22
 51 19 2808 0 641 648 6 0 +.1348909637567478 -.216294236883578 -.051866910226055
1 0 -1 0 .01 0 0 -1 13 22 65 0 0 0 0 0 0 9 16 14 16 923 649 ?650 0 632 5 494 +0
 0 650 0 22 81 1 649 3304 643 16 651 0 647 652 653 14 650 902 652 ?654 16 655 5
 656 +0 0 654 16 22 81 1 652 3305 643 650 657 0 649 658 659 14 654 896 658 ?660
 650 661 5 662 +0 0 660 650 22 15 655 424 0 386 650 0 50 656 445 0 650 662 663 0
 +.1475 -.073 -.041 0 0 1 1 0 0 50 662 446 0 654 664 656 0 +.1475 -.037 .041 0 -
1 0 0 0 -1 50 663 287 0 598 656 665 0 +.0889010911380548 -.216294236883578 -.104
2345832294708 -.648925998945478 0 .760851528152907 .760851528152907 0 .648925998
945478 14 598 268 666 ?667 621 27 5 663 -0 0 667 621 22 50 665 285 0 621 663 668
 0 +.0889010911380548 -.216294236883578 .1042345832294708 -.648925998945478 0 -.
760851528152907 -.760851528152907 0 .648925998945478 14 621 260 669 ?598 628 620
 5 665 -0 0 598 628 22 50 668 284 0 610 665 670 0 +.1524899527277195 -.216294236
883578 0 1 0 0 0 0 -1 14 610 555 671 ?672 673 674 5 668 +0 0 672 673 22 50 670 9
8 0 628 668 675 0 +0 0 0 .4226182617407005 0 -.90630778703665 -.90630778703665 0
 -.4226182617407005 14 628 94 676 ?621 638 627 5 670 -0 0 621 638 22 50 675 3 0
 638 670 677 0 +0 0 0 -.4226182617407005 0 -.90630778703665 -.90630778703665 0 .
4226182617407005 14 638 1 678 ?628 679 635 5 675 +0 0 628 679 22 52 677 137 0 68
0 675 681 0 -0 -.0179625701663353 0 0 -1 0 .1170806347563576 .998752338877845 .0
49937616943892 0 0 -1 14 680 136 682 ?683 672 684 5 677 +0 0 683 672 22 52 681 1
38 0 679 677 504 0 +0 -.0187116344204937 0 0 1 0 .1320619198395252 .049937616943
8914 .998752338877845 0 0 1 14 679 64 685 ?638 686 687 5 681 +0 0 638 686 22 50
 504 139 0 686 681 494 0 +.1223968666392996 .001000000000000042 -.05707459624808
16 0 -1 0 0 0 -1 14 686 118 688 ?679 615 689 5 504 +0 0 679 615 22 81 1 688 3314
 643 686 690 0 685 691 692 14 615 124 691 ?686 602 34 5 505 +0 0 686 602 22 15 6
89 117 0 118 686 0 17 118 0 689 445 693 116 133 463 0 441 -17 445 0 689 130 118
 113 636 442 0 633 +17 693 0 689 118 130 131 419 416 0 0 -17 133 0 687 694 441 1
31 118 463 0 415 +17 441 0 687 133 695 116 696 438 0 636 +15 687 63 0 441 679 0
 17 695 0 687 441 694 119 462 459 0 696 -17 696 0 635 637 636 119 441 438 0 0 -1
7 636 0 635 696 633 116 445 442 0 0 -17 637 0 635 91 696 74 121 435 0 697 -17 91
 0 635 640 637 89 697 555 0 458 +17 121 0 684 462 76 119 637 435 0 695 +17 697 0
 698 699 700 74 91 555 0 0 -15 698 2734 0 697 701 0 17 699 0 698 88 697 83 76 54
9 0 0 -17 700 0 698 697 88 89 541 538 0 0 -17 88 0 698 700 699 86 85 546 0 541 -
17 541 0 702 703 458 86 700 538 0 434 +15 702 132 0 458 683 0 17 703 0 702 704 5
41 122 434 431 0 0 -17 458 0 702 541 704 89 640 455 0 700 +17 434 0 627 85 124 8
6 703 431 0 0 +17 85 0 627 136 434 83 88 546 0 705 +17 136 0 627 415 85 134 705
 409 0 462 +17 705 0 684 76 462 83 136 409 0 699 -15 684 135 0 705 680 0 17 76 0
 684 121 705 74 699 549 0 637 +17 462 0 684 705 121 134 695 459 0 694 +17 694 0
 687 695 133 134 415 412 0 0 -17 415 0 627 419 136 131 694 412 0 693 +17 419 0 6
27 423 415 128 693 416 0 630 +17 630 0 632 115 127 128 423 420 0 0 -17 704 0 702
 458 703 107 475 472 0 640 -17 640 0 635 603 91 107 458 455 0 0 -17 475 0 600 62
3 109 122 704 472 0 703 +17 109 0 600 475 73 107 603 452 0 704 +14 683 133 706 ?
602 680 702 5 707 +0 0 602 680 22 81 1 706 3316 643 683 708 0 691 709 710 14 602
 130 709 ?615 683 711 5 712 +0 0 615 683 22 52 707 144 0 683 712 713 0 -0 .012 0
 0 1 0 .1185787632646742 .0499376169438922 .998752338877845 0 0 1 50 712 143 0 6
02 505 707 0 +.1074688565239498 .012 -.0501135508102787 0 1 0 0 0 1 54 255 713 2
745 0 701 707 714 0 +0 -.00847442294699579 0 0 1 0 .127567534314575 .01 0 0 1 14
 701 2733 715 ?619 716 698 5 713 +0 0 619 716 22 51 714 2766 0 619 713 648 0 +.1
424899527277194 -.216294236883578 .045385775173419 0 -1 0 .01 0 0 -1 14 619 2754
 717 ?608 701 617 5 714 +0 0 608 701 22 51 648 2787 0 608 714 19 0 +.14248995272
77194 -.216294236883578 -.0453857751734191 0 -1 0 .01 0 0 -1 81 1 717 3319 643 6
19 718 0 715 719 720 80 255 1 643 721 722 9000 1 1 1 1 1 1 1 1 0 FFFFTFTFFFFFFF1
 81 1 718 3212 723 619 724 717 725 726 727 81 1 715 3318 643 701 725 0 709 717 7
28 81 1 719 3320 643 716 729 0 717 730 731 82 255 1 720 1320419798 14 716 1407 7
19 ?701 244 732 5 733 -0 0 701 244 22 81 1 729 3210 723 716 734 719 735 725 736
 81 1 730 3321 643 244 735 0 719 737 738 82 1 731 998965711 14 244 1322 730 ?716
 237 239 5 739 -0 0 716 237 22 81 1 735 3209 723 244 740 730 741 729 742 81 1 73
7 3322 643 237 741 0 730 743 744 82 1 738 428409289 14 237 1318 737 ?244 745 228
 5 746 -0 0 244 745 22 81 1 741 3208 723 237 747 737 748 735 749 81 1 743 3323 6
43 745 748 0 737 750 751 82 1 744 435225033 14 745 1314 743 ?237 752 753 5 754 -
0 0 237 752 22 81 1 748 3207 723 745 755 743 756 741 757 81 1 750 3324 643 752 7
56 0 743 758 759 82 1 751 435093961 14 752 1310 750 ?745 222 760 5 761 -0 0 745
 222 22 81 1 756 3206 723 752 762 750 763 748 764 81 1 758 3325 643 222 763 0 75
0 765 766 82 1 759 434962889 14 222 1306 758 ?752 507 767 5 515 -0 0 752 507 22
 81 1 763 3205 723 222 768 758 769 756 770 81 1 765 3326 643 523 771 0 758 772 7
73 82 1 766 435356111 14 523 1063 765 ?518 514 774 5 520 +0 0 518 514 22 81 1 77
1 3201 723 523 775 765 776 777 778 81 1 772 3327 643 514 776 0 765 779 780 82 1
 773 1688797603 14 514 1055 772 ?523 781 782 5 508 +0 0 523 781 22 81 1 776 3200
 723 514 783 772 784 771 785 81 1 779 3328 643 660 786 0 772 787 788 82 1 780 16
94368163 14 660 887 779 ?673 654 789 5 664 +0 0 673 654 22 81 1 786 3181 723 660
 790 779 791 792 793 81 1 787 3329 643 673 792 0 779 794 795 82 1 788 1700200867
 14 673 878 787 ?610 660 796 5 797 +0 0 610 660 22 81 1 792 3182 723 673 798 787
 786 799 800 81 1 794 3330 643 781 784 0 787 801 802 82 1 795 1696989603 14 781
 845 794 ?514 803 804 5 525 -0 0 514 803 22 81 1 784 3199 723 781 805 794 806 77
6 807 81 1 801 3331 643 803 806 0 794 808 809 82 1 802 177668483 14 803 663 801
 ?781 810 811 5 812 +0 0 781 810 22 81 1 806 3198 723 803 813 801 814 784 815 81
 1 808 3332 643 810 814 0 801 816 817 82 1 809 -275906188 14 810 659 808 ?803 81
8 819 5 820 +0 0 803 818 22 81 1 814 3197 723 810 821 808 822 806 823 81 1 816 3
333 643 818 822 0 808 824 825 82 1 817 -275644044 14 818 655 816 ?810 667 826 5
 827 +0 0 810 667 22 81 1 822 3196 723 818 828 816 829 814 830 81 1 824 3334 643
 667 829 0 816 831 832 82 1 825 -275381900 14 667 651 824 ?818 598 833 5 834 +0
 0 818 598 22 81 1 829 3195 723 667 835 824 836 822 837 81 1 831 3335 643 672 83
8 0 824 0 839 82 1 832 -275119756 14 672 539 831 ?680 610 840 5 841 +0 0 680 610
 22 81 1 838 3184 723 672 842 831 799 843 844 82 1 839 -270794380 80 1 723 0 845
 8001 0 0 0 0 3 5 0 0 0 FFFFTFTFFFFFFF2 81 2 842 2883 846 672 0 838 847 848 0 0
 81 1 799 3183 723 610 847 671 792 838 849 81 1 843 3185 723 680 848 682 838 708
 850 83 255 3 844 .792156862745098 .819607843137255 .933333333333333 81 2 848 28
85 846 680 0 843 842 851 0 0 81 1 682 3312 643 680 843 0 678 685 852 81 1 708 31
86 723 683 851 706 843 853 854 83 3 850 .792156862745098 .819607843137255 .93333
3333333333 81 2 851 2887 846 683 0 708 848 855 0 0 81 1 853 3187 723 602 855 709
 708 856 857 83 3 854 .792156862745098 .819607843137255 .933333333333333 81 2 85
5 2889 846 602 0 853 851 858 0 0 81 1 709 3317 643 602 853 0 706 715 859 81 1 85
6 3188 723 615 858 691 853 690 860 83 3 857 .792156862745098 .819607843137255 .9
33333333333333 81 2 858 2891 846 615 0 856 855 861 0 0 81 1 691 3315 643 615 856
 0 688 706 862 81 1 690 3189 723 686 861 688 856 863 864 83 3 860 .7921568627450
98 .819607843137255 .933333333333333 81 2 861 2893 846 686 0 690 858 865 0 0 81
 1 863 3190 723 679 865 685 690 866 867 83 3 864 .792156862745098 .8196078431372
55 .933333333333333 81 2 865 2895 846 679 0 863 861 868 0 0 81 1 685 3313 643 67
9 863 0 682 688 869 81 1 866 3191 723 638 868 678 863 870 871 83 3 867 .79215686
2745098 .819607843137255 .933333333333333 81 2 868 2897 846 638 0 866 865 872 0
 0 81 1 678 3311 643 638 866 0 676 682 873 81 1 870 3192 723 628 872 676 866 874
 875 83 3 871 .792156862745098 .819607843137255 .933333333333333 81 2 872 2899 8
46 628 0 870 868 876 0 0 81 1 676 3310 643 628 870 0 671 678 877 81 1 874 3193 7
23 621 876 669 870 836 878 83 3 875 .792156862745098 .819607843137255 .933333333
333333 81 2 876 2901 846 621 0 874 872 879 0 0 81 1 669 3308 643 621 874 0 666 6
71 880 81 1 836 3194 723 598 879 666 874 829 881 83 3 878 .792156862745098 .8196
07843137255 .933333333333333 81 2 879 2903 846 598 0 836 876 835 0 0 81 1 666 33
07 643 598 836 0 658 669 882 83 3 881 .792156862745098 .819607843137255 .9333333
33333333 81 1 658 3306 643 654 791 0 652 666 883 82 1 882 59703766 81 1 791 3180
 723 654 884 658 657 786 885 82 1 883 1702101411 81 2 884 2875 846 654 0 791 886
 790 0 0 81 1 657 3179 723 650 886 652 651 791 887 83 3 885 .792156862745098 .81
9607843137255 .933333333333333 81 2 886 2873 846 650 0 657 888 884 0 0 81 1 651
 3178 723 16 888 649 0 657 889 83 3 887 .792156862745098 .819607843137255 .93333
3333333333 81 2 888 2871 846 16 0 651 0 886 0 0 83 3 889 .792156862745098 .81960
7843137255 .933333333333333 80 2 846 890 891 9000 0 0 0 0 3 6 0 0 0 FFFFTFFFFFFF
FF9 1 79 255 14 891 FACE_ID_2_200181 2 790 2877 846 660 0 786 884 798 0 0 81 2 7
98 2879 846 673 0 792 790 847 0 0 81 2 847 2881 846 610 0 799 798 842 0 0 81 2 8
35 2905 846 667 0 829 879 828 0 0 81 2 828 2907 846 818 0 822 835 821 0 0 81 2 8
21 2909 846 810 0 814 828 813 0 0 81 2 813 2911 846 803 0 806 821 805 0 0 81 2 8
05 2913 846 781 0 784 813 783 0 0 81 2 783 2915 846 514 0 776 805 775 0 0 81 2 7
75 2917 846 523 0 771 783 892 0 0 81 2 892 2919 846 518 0 777 775 893 0 0 81 1 7
77 3202 723 518 892 522 771 894 895 81 2 893 2921 846 512 0 894 892 896 0 0 81 1
 894 3203 723 512 893 517 777 769 897 81 2 896 2923 846 507 0 769 893 768 0 0 81
 1 769 3204 723 507 896 511 894 763 898 81 2 768 2925 846 222 0 763 896 762 0 0
 81 2 762 2927 846 752 0 756 768 755 0 0 81 2 755 2929 846 745 0 748 762 747 0 0
 81 2 747 2931 846 237 0 741 755 740 0 0 81 2 740 2933 846 244 0 735 747 734 0 0
 81 2 734 2935 846 716 0 729 740 899 0 0 81 2 899 2937 846 701 0 725 734 724 0 0
 81 1 725 3211 723 701 899 715 729 718 900 81 2 724 2939 846 619 0 718 899 901 0
 0 81 2 901 2941 846 608 0 726 724 902 0 0 81 1 726 3213 723 608 901 647 718 644
 903 81 2 902 2943 846 641 0 644 901 904 0 0 81 1 644 3214 723 641 902 642 726 9
05 906 81 2 904 2945 846 18 0 905 902 0 0 0 81 1 905 3215 723 18 904 645 644 0 9
07 81 1 645 3302 643 18 905 0 642 647 908 83 3 907 .792156862745098 .81960784313
7255 .933333333333333 81 1 647 3303 643 608 726 0 645 649 909 82 1 908 132631803
8 82 1 909 1322385878 83 3 906 .792156862745098 .819607843137255 .93333333333333
3 83 3 903 .792156862745098 .819607843137255 .933333333333333 83 3 900 .79215686
2745098 .819607843137255 .933333333333333 81 1 511 3298 643 507 769 0 0 517 910
 83 3 898 .792156862745098 .819607843137255 .933333333333333 81 1 517 3299 643 5
12 894 0 511 522 911 82 1 910 1688011171 81 1 522 3300 643 518 777 0 517 642 912
 82 1 911 1688273315 82 1 912 1688535459 83 3 897 .792156862745098 .819607843137
255 .933333333333333 83 3 895 .792156862745098 .819607843137255 .933333333333333
 81 1 671 3309 643 610 799 0 669 676 913 82 1 880 59572694 82 1 913 60031446 82
 1 877 59769302 82 1 873 60228054 82 1 869 1620574545 82 1 862 60752342 82 1 859
 60883414 82 1 852 60359126 83 3 849 .792156862745098 .819607843137255 .93333333
3333333 79 15 845 SDL/TYSA_COLOUR15 840 439 0 914 672 915 50 841 450 0 672 834 7
97 0 +.1475 0 0 -1 0 0 0 0 1 50 834 675 0 667 827 841 0 +.172 -.0675 -.036 0 0 1
 1 0 0 50 797 448 0 673 841 664 0 +.1475 -.073 .041 0 1 0 0 0 1 50 664 447 0 660
 797 662 0 +.1475 -.073 .041 0 0 -1 -1 0 0 50 827 676 0 818 820 834 0 +.172 -.04
25 .036 0 -1 96373526443156e-30 0 -96373526443156e-30 -1 50 820 677 0 810 812 82
7 0 +.172 -.0675 .036 0 0 -1 -1 0 0 50 812 678 0 803 525 820 0 +.172 -.0675 .036
 0 1 0 0 0 1 51 525 853 0 781 520 812 0 +.1386499527277194 -.0468994949366117 .0
3 0 1 0 .0035 0 0 1 17 914 0 840 916 148 137 361 358 0 0 -15 915 522 0 479 672 0
 17 479 0 915 491 483 104 163 476 0 0 +17 491 0 915 487 479 149 917 488 0 0 +17
 483 0 915 479 487 161 157 480 0 0 +17 163 0 811 103 106 161 479 476 0 333 -15 8
11 666 0 106 803 0 17 103 0 811 166 163 101 333 330 0 918 -17 106 0 811 163 166
 104 919 327 0 917 +17 333 0 819 157 918 161 103 330 0 483 +15 819 662 0 333 810
 0 17 157 0 819 920 333 155 483 480 0 337 -17 918 0 819 333 920 101 349 346 0 34
5 -17 920 0 819 918 157 158 337 334 0 349 -17 349 0 611 353 345 158 918 346 0 0
 +17 345 0 611 349 357 101 166 342 0 0 +15 611 542 0 353 610 0 17 357 0 611 345
 353 164 154 354 0 0 +17 166 0 811 106 103 164 345 342 0 919 -17 919 0 833 154 9
17 164 106 327 0 357 -15 833 654 0 341 667 0 17 154 0 833 341 919 152 357 354 0
 921 -17 917 0 833 919 341 104 491 488 0 479 -17 341 0 833 917 154 149 921 338 0
 491 +17 921 0 826 160 151 152 341 338 0 353 -15 826 658 0 337 818 0 17 160 0 82
6 337 921 158 353 350 0 920 -17 151 0 826 921 337 149 487 484 0 341 -17 353 0 61
1 357 349 152 160 350 0 0 +17 337 0 826 151 160 155 920 334 0 487 +17 487 0 915
 483 491 155 151 484 0 0 +17 916 0 840 922 914 140 139 368 0 0 -17 148 0 840 914
 922 146 145 362 0 361 -17 361 0 655 386 923 146 914 358 0 924 +17 386 0 655 925
 361 176 924 383 0 0 +17 923 0 655 361 925 137 374 371 0 914 -17 924 0 926 145 9
27 146 386 383 0 0 -15 926 428 0 382 654 0 17 145 0 926 382 924 143 148 362 0 92
8 +17 927 0 926 924 382 176 193 289 0 386 -17 382 0 926 927 145 191 928 379 0 0
 +17 193 0 929 100 178 191 927 289 0 930 +15 929 1058 0 100 514 0 17 100 0 929 1
96 193 98 930 275 0 931 +17 178 0 929 193 196 176 925 286 0 927 +17 930 0 789 92
8 378 191 100 275 0 382 -15 789 432 0 378 660 0 17 928 0 789 142 930 143 382 379
 0 922 -17 378 0 789 930 142 98 932 375 0 0 +17 142 0 789 378 928 140 922 365 0
 932 +17 932 0 796 139 931 140 378 375 0 916 -15 796 436 0 374 673 0 17 139 0 79
6 374 932 137 916 368 0 923 +17 931 0 796 932 374 98 196 283 0 378 -17 374 0 796
 931 139 194 923 371 0 0 +17 196 0 929 178 100 194 931 283 0 925 +17 925 0 655 9
23 386 194 178 286 0 374 -17 922 0 840 148 916 143 142 365 0 0 -83 3 837 .792156
862745098 .819607843137255 .933333333333333 83 3 830 .792156862745098 .819607843
137255 .933333333333333 83 3 823 .792156862745098 .819607843137255 .933333333333
333 83 3 815 .792156862745098 .819607843137255 .933333333333333 83 3 807 .792156
862745098 .819607843137255 .933333333333333 15 804 848 0 322 781 933 17 322 0 80
4 322 322 0 934 319 0 0 +15 933 849 0 935 781 0 17 935 0 933 935 935 0 326 323 0
 0 -17 326 0 661 326 326 0 935 323 0 0 +15 661 818 0 326 654 926 17 934 0 936 93
4 934 0 322 319 0 0 -15 936 825 0 934 602 600 83 3 800 .792156862745098 .8196078
43137255 .933333333333333 83 3 793 .792156862745098 .819607843137255 .9333333333
33333 83 3 785 .792156862745098 .819607843137255 .933333333333333 15 782 1057 0
 937 514 929 17 937 0 782 938 190 179 295 292 0 0 -17 938 0 782 939 937 182 181
 302 0 0 -17 190 0 782 937 939 188 187 296 0 295 -17 295 0 774 318 940 188 937 2
92 0 941 +15 774 1066 0 940 523 0 17 318 0 774 942 295 167 941 315 0 537 +17 940
 0 774 295 942 179 97 305 0 937 -17 941 0 524 187 169 188 318 315 0 0 -15 524 10
70 0 941 518 0 17 187 0 524 314 941 185 190 296 0 943 +17 169 0 524 941 314 167
 533 526 0 318 -17 314 0 524 169 187 170 943 312 0 533 +17 533 0 634 944 537 170
 169 526 0 0 +15 634 906 0 501 16 0 17 944 0 634 501 533 173 172 502 0 0 +17 537
 0 634 533 501 167 942 534 0 0 +17 501 0 634 537 944 95 175 492 0 0 +17 942 0 77
4 940 318 95 537 534 0 501 -17 175 0 513 945 97 173 501 492 0 311 -15 513 1078 0
 945 507 0 17 945 0 513 181 175 182 311 308 0 938 -17 97 0 513 175 181 95 940 30
5 0 942 +17 311 0 519 172 184 173 945 308 0 944 +15 519 1074 0 943 512 0 17 172
 0 519 943 311 170 944 502 0 314 -17 184 0 519 311 943 182 939 299 0 945 +17 943
 0 519 184 172 185 314 312 0 939 -17 939 0 782 190 938 185 184 299 0 0 -16 502 9
13 946 ?944 526 492 493 0 0 1 81 2 946 3092 249 502 0 0 583 310 0 0 80 2 249 947
 948 9000 0 0 0 0 3 6 0 0 0 FFFFFFTFFFFFFF9 1 81 2 583 3091 249 581 0 0 576 946
 0 0 81 2 310 3093 249 308 0 0 946 23 0 0 81 2 23 3094 249 10 0 0 310 437 0 0 81
 2 437 3095 249 435 0 0 23 405 0 0 81 2 405 3096 249 387 0 0 437 367 0 0 81 2 36
7 3097 249 365 0 0 405 532 0 0 81 2 532 3098 249 526 0 0 367 298 0 0 81 2 298 30
99 249 296 0 0 532 554 0 0 81 2 554 3100 249 552 0 0 298 444 0 0 81 2 444 3101 2
49 442 0 0 554 573 0 0 81 2 573 3102 249 571 0 0 444 265 0 0 81 2 265 3103 249 2
27 0 0 573 325 0 0 81 2 325 3104 249 323 0 0 265 263 0 0 81 2 263 3105 249 233 0
 0 325 332 0 0 81 2 332 3106 249 330 0 0 263 465 0 0 81 2 465 3107 249 463 0 0 3
32 321 0 0 81 2 321 3108 249 319 0 0 465 377 0 0 81 2 377 3109 249 375 0 0 321 2
88 0 0 81 2 288 3110 249 286 0 0 377 278 0 0 81 2 278 3111 249 276 0 0 288 949 0
 0 81 2 949 3112 249 257 0 0 278 426 0 0 16 257 1406 949 ?950 227 951 256 0 0 1
 81 2 426 3113 249 424 0 0 949 454 0 0 81 2 454 3114 249 452 0 0 426 344 0 0 81
 2 344 3115 249 342 0 0 454 471 0 0 81 2 471 3116 249 469 0 0 344 304 0 0 81 2 3
04 3117 249 302 0 0 471 269 0 0 81 2 269 3118 249 254 0 0 304 356 0 0 81 2 356 3
119 249 354 0 0 269 285 0 0 81 2 285 3120 249 283 0 0 356 373 0 0 81 2 373 3121
 249 371 0 0 285 241 0 0 81 2 241 3122 249 236 0 0 373 294 0 0 81 2 294 3123 249
 292 0 0 241 329 0 0 81 2 329 3124 249 327 0 0 294 394 0 0 81 2 394 3125 249 392
 0 0 329 461 0 0 81 2 461 3126 249 459 0 0 394 291 0 0 81 2 291 3127 249 289 0 0
 461 560 0 0 81 2 560 3128 249 558 0 0 291 401 0 0 81 2 401 3129 249 399 0 0 560
 390 0 0 81 2 390 3130 249 388 0 0 401 551 0 0 81 2 551 3131 249 549 0 0 390 370
 0 0 81 2 370 3132 249 368 0 0 551 536 0 0 81 2 536 3133 249 534 0 0 370 317 0 0
 81 2 317 3134 249 315 0 0 536 588 0 0 81 2 588 3135 249 37 0 0 317 593 0 0 81 2
 593 3136 249 592 0 0 588 348 0 0 81 2 348 3137 249 346 0 0 593 422 0 0 81 2 422
 3138 249 420 0 0 348 340 0 0 81 2 340 3139 249 338 0 0 422 540 0 0 81 2 540 314
0 249 538 0 0 340 352 0 0 81 2 352 3141 249 350 0 0 540 385 0 0 81 2 385 3142 24
9 383 0 0 352 261 0 0 81 2 261 3143 249 242 0 0 385 336 0 0 81 2 336 3144 249 33
4 0 0 261 544 0 0 81 2 544 3145 249 542 0 0 336 411 0 0 81 2 411 3146 249 409 0
 0 544 486 0 0 81 2 486 3147 249 484 0 0 411 381 0 0 81 2 381 3148 249 379 0 0 4
86 563 0 0 81 2 563 3149 249 561 0 0 381 591 0 0 81 2 591 3150 249 589 0 0 563 5
70 0 0 81 2 570 3151 249 568 0 0 591 433 0 0 81 2 433 3152 249 431 0 0 570 282 0
 0 81 2 282 3153 249 275 0 0 433 594 0 0 17 950 0 732 950 950 0 952 257 0 0 +16
 951 1403 953 ?954 257 0 258 0 0 1 81 2 953 3171 249 951 0 0 490 307 0 0 17 954
 0 955 954 954 0 956 951 0 0 +31 258 1426 0 951 0 256 0 +.1524899527277195 .0044
65209405762315 0 1 0 0 0 0 -1 .003 15 955 1411 0 954 716 0 17 956 0 674 956 956
 0 954 951 0 0 -15 674 1396 0 956 610 609 81 2 490 3170 249 488 0 0 474 953 0 0
 81 2 307 3172 249 305 0 0 953 548 0 0 81 2 548 3173 249 546 0 0 307 586 0 0 81
 2 586 3174 249 584 0 0 548 567 0 0 81 2 567 3175 249 565 0 0 586 252 0 0 81 2 2
52 3176 249 247 0 0 567 397 0 0 81 2 397 3177 249 395 0 0 252 0 0 0 81 2 474 316
9 249 472 0 0 301 490 0 0 81 2 301 3168 249 299 0 0 251 474 0 0 81 2 251 3167 24
9 312 0 0 246 301 0 0 15 732 1410 0 950 716 955 17 952 0 767 952 952 0 950 257 0
 0 -15 767 1388 0 952 222 217 81 2 576 3090 249 574 0 0 451 583 0 0 81 2 451 308
9 249 449 0 0 557 576 0 0 81 2 557 3088 249 555 0 0 360 451 0 0 81 2 360 3087 24
9 358 0 0 364 557 0 0 81 2 364 3086 249 362 0 0 482 360 0 0 81 2 482 3085 249 48
0 0 0 430 364 0 0 81 2 430 3084 249 428 0 0 418 482 0 0 81 2 418 3083 249 416 0
 0 414 430 0 0 81 2 414 3082 249 412 0 0 274 418 0 0 81 2 274 3081 249 272 0 0 0
 414 0 0 79 19 948 EDGE_PERM_ID_2_200317 181 0 513 97 945 179 938 302 0 940 +83
 3 778 .792156862745098 .819607843137255 .933333333333333 83 3 770 .792156862745
098 .819607843137255 .933333333333333 50 515 1330 0 222 746 508 0 +.147489952727
7194 -.018 .0177 1 0 0 0 0 -1 50 746 1331 0 237 754 515 0 +.1380899527277194 -.0
18 -.0177 0 0 -1 -1 0 0 50 754 1332 0 745 761 746 0 +.1380899527277194 -.018 .01
77 -1 0 0 0 0 1 50 761 1333 0 752 739 754 0 +.1380899527277194 -.018 .0177 0 0 1
 1 0 0 50 739 1335 0 244 733 761 0 +0 -.018 0 0 -1 0 0 0 -1 51 733 1422 0 716 0
 739 0 +.139004671353481 .004465209405762315 0 1 0 0 .003 0 0 -1 83 3 764 .79215
6862745098 .819607843137255 .933333333333333 15 760 1313 0 253 752 0 17 253 0 76
0 209 204 198 957 247 0 226 +17 209 0 760 245 253 197 200 272 0 218 -17 204 0 76
0 253 245 202 212 276 0 270 +17 957 0 711 958 226 202 253 247 0 0 -17 226 0 711
 957 230 198 94 227 0 0 -15 711 1262 0 226 602 936 17 230 0 711 226 958 92 229 2
66 0 0 -17 958 0 711 230 957 205 270 254 0 0 -17 229 0 228 215 219 205 230 266 0
 958 +17 270 0 753 212 207 202 958 254 0 957 +15 753 1317 0 270 745 0 17 212 0 7
53 238 270 210 204 276 0 240 -17 207 0 753 270 238 205 215 232 0 229 +17 238 0 7
53 207 212 213 240 242 0 235 -17 240 0 239 225 235 210 238 242 0 245 +17 245 0 7
60 204 209 210 225 233 0 0 -17 200 0 217 94 218 198 209 272 0 253 +83 3 757 .792
156862745098 .819607843137255 .933333333333333 83 3 749 .792156862745098 .819607
843137255 .933333333333333 83 3 742 .792156862745098 .819607843137255 .933333333
333333 83 3 736 .792156862745098 .819607843137255 .933333333333333 82 1 728 1318
453718 83 3 727 .792156862745098 .819607843137255 .933333333333333 79 14 722 SWE
ntUnchanged50 505 141 0 615 494 712 0 +.1364899527277194 -.088 -.063646310218149
5 0 -1 0 0 0 -1 82 1 710 61145558 17 130 0 689 693 445 128 115 466 0 419 +82 1 6
92 1625620817 82 1 659 1702625699 82 1 653 1704526243 82 1 646 1324351958 17 64
 0 620 616 391 62 622 558 0 402 +17 31 0 34 38 32 11 28 403 0 607 +17 607 0 605
 30 606 11 38 589 0 0 -81 2 440 3155 249 438 0 0 594 268 0 0 81 2 268 3156 249 2
66 0 0 440 579 0 0 81 2 579 3157 249 577 0 0 268 500 0 0 81 2 500 3158 249 492 0
 0 579 468 0 0 81 2 468 3159 249 466 0 0 500 279 0 0 81 2 279 3160 249 232 0 0 4
68 231 0 0 81 2 231 3161 249 220 0 0 279 408 0 0 81 2 408 3162 249 403 0 0 231 4
57 0 0 81 2 457 3163 249 455 0 0 408 478 0 0 81 2 478 3164 249 476 0 0 457 250 0
 0 81 2 250 3165 249 446 0 0 478 246 0 0 141 506 503 959 959 494 141 959 489 506
 506 494 19 17 61 0 1 0 9 5 S0 74 4 CI16 index_map_offset0 0 1 dCCZ20 15 11 0 0
 831 960 961 962 963 964 13 904 397 905 2 0 0 0 0 0 0 0 0 0 81 5 960 224 965 1 0
 961 0 0 966 0 0 0 0 81 2 961 317 967 1 960 962 0 0 0 968 81 2 962 326 969 1 961
 963 0 0 0 970 81 2 963 806 971 1 962 964 0 0 0 972 81 1 964 2859 973 1 963 13 0
 0 974 81 2 13 2867 975 1 964 2 0 0 0 0 80 2 975 976 977 9000 0 0 0 0 3 5 0 0 0
 FFTFFFFFFFFFFF9 1 79 16 977 BODY_RECIPE_200180 1 973 978 979 9000 1 1 1 1 1 1 1
 1 0 FFTFFFFFFFFFFF1 82 1 974 501 79 10 979 BODY_MATCH80 2 971 980 981 9000 0 0
 0 0 3 5 0 0 0 FFTFFFFFFFFFFF9 1 82 1 972 1 79 24 981 BODY_IN_LIGHTWEIGHT_PERM80
 2 969 982 983 9000 0 0 0 0 3 5 0 0 0 FFTFFFFFFFFFFF9 1 82 1 970 342 79 30 983 L
AST_BODY_MODIFYING_FEATURE_ID80 2 967 984 985 9000 0 0 0 0 3 5 0 0 0 FFTFFFFFFFF
FFF9 1 82 1 968 324 79 19 985 ENT_TIME_STAMP_200180 5 965 986 987 9000 0 0 0 0 3
 6 0 0 0 FFTTTTTTFTTFTT2 2 2 2 2 83 1 966 1 79 19 987 BODY_SCALING_FACTOR80 2 12
 249 988 9000 0 0 0 0 3 5 0 0 0 FFTFFFFFFFFFFF9 1 82 1 14 116 79 12 988 ATOM_ID_
20011 0 
